<svg width="34" height="32" viewBox="0 0 34 32" fill="none" xmlns="http://www.w3.org/2000/svg">
<path d="M30.75 9.24998H25.2687C25.3297 9.19842 25.3922 9.14842 25.4516 9.09373C25.9261 8.67214 26.3086 8.15716 26.575 7.581C26.8414 7.00485 26.9861 6.37992 27 5.7453C27.0205 5.05104 26.8989 4.35991 26.6427 3.71434C26.3865 3.06877 26.001 2.48238 25.5099 1.99118C25.0189 1.49998 24.4326 1.11432 23.7871 0.857891C23.1416 0.60146 22.4505 0.479666 21.7563 0.499984C21.1214 0.513659 20.4961 0.658242 19.9197 0.924682C19.3433 1.19112 18.828 1.57369 18.4062 2.04842C17.8226 2.72482 17.3482 3.48817 17 4.31092C16.6518 3.48817 16.1774 2.72482 15.5938 2.04842C15.172 1.57369 14.6567 1.19112 14.0803 0.924682C13.5039 0.658242 12.8786 0.513659 12.2437 0.499984C11.5495 0.479666 10.8584 0.60146 10.2129 0.857891C9.5674 1.11432 8.98113 1.49998 8.49008 1.99118C7.99902 2.48238 7.61354 3.06877 7.3573 3.71434C7.10106 4.35991 6.97947 5.05104 7 5.7453C7.01389 6.37992 7.15857 7.00485 7.42501 7.581C7.69144 8.15716 8.07389 8.67214 8.54844 9.09373C8.60781 9.1453 8.67031 9.1953 8.73125 9.24998H3.25C2.58696 9.24998 1.95107 9.51338 1.48223 9.98222C1.01339 10.4511 0.75 11.0869 0.75 11.75V16.75C0.75 17.413 1.01339 18.0489 1.48223 18.5178C1.95107 18.9866 2.58696 19.25 3.25 19.25V29.25C3.25 29.913 3.51339 30.5489 3.98223 31.0178C4.45107 31.4866 5.08696 31.75 5.75 31.75H15.125C15.2908 31.75 15.4497 31.6841 15.5669 31.5669C15.6842 31.4497 15.75 31.2907 15.75 31.125V16.75H3.25V11.75H15.75V16.75H18.25V11.75H30.75V16.75H18.25V31.125C18.25 31.2907 18.3158 31.4497 18.4331 31.5669C18.5503 31.6841 18.7092 31.75 18.875 31.75H28.25C28.913 31.75 29.5489 31.4866 30.0178 31.0178C30.4866 30.5489 30.75 29.913 30.75 29.25V19.25C31.413 19.25 32.0489 18.9866 32.5178 18.5178C32.9866 18.0489 33.25 17.413 33.25 16.75V11.75C33.25 11.0869 32.9866 10.4511 32.5178 9.98222C32.0489 9.51338 31.413 9.24998 30.75 9.24998ZM10.2047 7.21873C9.98613 7.02082 9.81084 6.77985 9.68984 6.51096C9.56884 6.24207 9.50474 5.95107 9.50156 5.65623C9.49366 5.31077 9.55479 4.9672 9.68136 4.64566C9.80793 4.32412 9.9974 4.03108 10.2387 3.78369C10.4799 3.53631 10.7682 3.33957 11.0864 3.205C11.4047 3.07043 11.7466 3.00073 12.0922 2.99998H12.1688C12.4636 3.00316 12.7546 3.06727 13.0235 3.18827C13.2924 3.30926 13.5333 3.48455 13.7313 3.70311C15.0422 5.18436 15.5047 7.64061 15.6672 9.15936C14.1422 8.99842 11.6875 8.53592 10.2047 7.21873ZM23.7984 7.21873C22.3156 8.53123 19.8547 8.99373 18.3297 9.15623C18.5156 7.51405 19.0312 5.10936 20.2812 3.70467C20.4792 3.48611 20.7201 3.31083 20.989 3.18983C21.2579 3.06883 21.5489 3.00473 21.8438 3.00155H21.9203C22.2659 3.00371 22.6076 3.07482 22.9253 3.21072C23.243 3.34662 23.5305 3.54457 23.7707 3.79298C24.011 4.04138 24.1992 4.33524 24.3245 4.65733C24.4497 4.97943 24.5094 5.32328 24.5 5.66873C24.4949 5.96157 24.4297 6.25025 24.3085 6.51687C24.1873 6.78349 24.0126 7.02238 23.7953 7.21873H23.7984Z" fill="#756C71"/>
</svg>
